<?xml version="1.0" standalone="no"?><!DOCTYPE svg PUBLIC "-//W3C//DTD SVG 1.1//EN" "http://www.w3.org/Graphics/SVG/1.1/DTD/svg11.dtd"><svg t="1735279250134" class="icon" viewBox="0 0 1024 1024" version="1.1" xmlns="http://www.w3.org/2000/svg" p-id="10723" xmlns:xlink="http://www.w3.org/1999/xlink" width="200" height="200"><path d="M754.176 656.384c-32.768-23.04-65.024-41.984-102.4-55.808 18.432-13.824 37.376-28.16 55.808-46.592C768 493.568 800.768 409.6 800.768 325.632c0-88.576-32.768-167.424-93.184-227.84S563.2 4.608 479.232 4.608 311.808 32.768 251.392 93.184 158.208 237.568 158.208 321.024c0 88.576 32.768 167.424 93.184 227.84 18.432 18.432 37.376 32.768 55.808 46.592-51.2 18.432-93.184 46.592-135.168 83.968-83.968 74.24-135.168 176.64-148.992 288.768 0 18.432 9.216 37.376 28.16 37.376h4.608c18.432 0 32.768-13.824 32.768-28.16 9.216-93.184 55.808-181.76 125.44-246.784s162.816-102.4 260.608-102.4c83.968 0 167.424 28.16 232.96 79.36 13.824 9.216 37.376 9.216 46.592-9.216 18.432-9.728 13.824-32.768 0-41.984z m-284.16-79.36c-18.432 0-37.376-4.608-55.808-9.216-46.592-9.216-83.968-32.768-116.224-65.024-46.592-46.592-74.24-111.616-74.24-181.76 0-69.632 28.16-135.168 74.24-181.76 46.592-46.592 111.616-74.24 181.76-74.24s135.168 28.16 181.76 74.24c46.592 46.592 74.24 111.616 74.24 181.76 0 69.632-28.16 135.168-74.24 181.76-32.768 32.768-69.632 55.808-111.616 65.024-28.672 9.216-56.32 9.216-79.872 9.216z" fill="#2B354A" p-id="10724"></path><path d="M898.048 868.864v-0.512l-141.312 132.096c-6.144 6.144-15.872 7.168-23.552 2.048l-3.584-3.072-77.824-80.384c-7.168-7.68-6.656-19.968 1.024-27.136s19.968-6.656 27.648 1.024l64 67.072 126.976-119.296c7.68-7.168 19.968-6.656 27.648 1.024 7.168 7.68 6.656 19.968-1.024 27.136z" fill="#5184F7" p-id="10725"></path></svg>