<?xml version="1.0" standalone="no"?><!DOCTYPE svg PUBLIC "-//W3C//DTD SVG 1.1//EN" "http://www.w3.org/Graphics/SVG/1.1/DTD/svg11.dtd"><svg t="1735279204412" class="icon" viewBox="0 0 1024 1024" version="1.1" xmlns="http://www.w3.org/2000/svg" p-id="7404" xmlns:xlink="http://www.w3.org/1999/xlink" width="200" height="200"><path d="M0 0h1024v1024H0z" fill="#FFFFFF" fill-opacity="0" p-id="7405"></path><path d="M885.333333 298.666667v426.666666A202.922667 202.922667 0 0 1 682.666667 928h-170.666667a32 32 0 1 1 0-64h170.666667A138.837333 138.837333 0 0 0 821.333333 725.333333V298.666667A138.837333 138.837333 0 0 0 682.666667 160h-170.666667a32 32 0 1 1 0-64h170.666667A202.922667 202.922667 0 0 1 885.333333 298.666667z m-265.386666 190.72l-170.666667-170.666667a32 32 0 1 0-45.269333 45.269333l116.053333 116.053334H170.666667a32 32 0 1 0 0 64h349.397333l-116.053333 116.053333a32 32 0 1 0 45.226666 45.269333l170.666667-170.666666a32.042667 32.042667 0 0 0 0.042667-45.312z" fill="#41416E" p-id="7406"></path></svg>