<?xml version="1.0" standalone="no"?><!DOCTYPE svg PUBLIC "-//W3C//DTD SVG 1.1//EN" "http://www.w3.org/Graphics/SVG/1.1/DTD/svg11.dtd"><svg t="1735279113933" class="icon" viewBox="0 0 1024 1024" version="1.1" xmlns="http://www.w3.org/2000/svg" p-id="1203" xmlns:xlink="http://www.w3.org/1999/xlink" width="200" height="200"><path d="M510.841371 641.807299l142.927553 12.961147c135.237355 25.653036 230.367363 86.607554 230.367363 157.736797C884.132207 906.782598 717.003984 983.203187 510.841371 983.203187S137.550534 906.782598 137.550534 812.505243s167.128223-170.697944 373.290837-170.697944" fill="#88D1C0" p-id="1204"></path><path d="M508.997355 662.124112l142.931633 12.961147-1.954167-0.269259c127.861291 24.253705 213.76306 79.590502 213.763059 137.697402C863.733801 885.090932 721.932239 962.804781 510.841371 962.804781S157.94894 885.090932 157.94894 812.505243s141.801562-150.299538 352.892431-150.299538c11.272159 0 20.398406-9.130327 20.398406-20.398406s-9.126247-20.398406-20.398406-20.398407c-220.755633 0-393.689243 83.935363-393.689244 191.096351C117.152127 919.662151 290.077578 1003.601594 510.841371 1003.601594c220.755633 0 393.689243-83.939442 393.693322-191.096351 0-80.761371-94.624127-148.879809-246.963506-177.776191l-0.966884-0.187666-0.987283-0.085673-142.927554-12.961147a20.398406 20.398406 0 0 0-22.156749 18.472797 20.386167 20.386167 0 0 0 18.464638 22.156749z" fill="#6E6E96" p-id="1205"></path><path d="M653.768924 637.82961l-142.927553-12.961148c-206.162614 0-373.290837 76.41243-373.290837 170.697944 0 35.574821 23.80902 68.60392 64.524239 95.950024-7.437259-12.365514-11.488382-25.383777-11.488383-38.834486 0-80.761371 143.160096-146.219857 319.761339-146.219856l122.435315 11.104892c115.846629 21.973163 197.330104 74.193084 197.330103 135.114964 0 13.854598-4.304064 27.240032-12.169689 39.936 41.73106-27.558247 66.200988-60.995315 66.200988-97.051538-0.008159-71.129243-95.138167-132.083761-230.375522-157.736796z" fill="#62968A" opacity=".24" p-id="1206"></path><path d="M510.841371 800.914869V40.796813l375.612175 224.38247-375.612175 163.468749" fill="#FF8AA2" p-id="1207"></path><path d="M531.239777 800.914869V40.796813a20.402486 20.402486 0 0 1-30.85463 17.514071l375.608096 224.382471a20.398406 20.398406 0 0 1 2.321339-36.215331l-375.612176 163.468749a20.398406 20.398406 0 0 0 16.282008 37.406598l375.612176-163.468749a20.398406 20.398406 0 0 0 2.317259-36.215331l-375.608096-224.38247A20.398406 20.398406 0 0 0 490.442964 40.796813v760.118056a20.398406 20.398406 0 1 0 40.796813 0z" fill="#6E6E96" p-id="1208"></path><path d="M571.873402 379.838725V138.709163l270.025945 123.614343L531.239777 76.742884V397.524143z" fill="#E37B90" p-id="1209"></path></svg>